<svg xmlns="http://www.w3.org/2000/svg" xmlns:xlink="http://www.w3.org/1999/xlink" 
version="1.2" baseProfile="tiny" x="0px" y="0px" viewBox="0 0 100 125" xml:space="preserve"><path d="M50,2.5C23.8084106,2.5,2.5,23.8079834,2.5,50c0,26.1920776,21.3084106,47.5,47.5,47.5S97.5,76.1920776,97.5,50  C97.5,23.8079834,76.1915894,2.5,50,2.5z M50,91.5625c-9.4929199,0-18.2526855-3.1989746-25.2579956-8.5756836  C25.836853,66.456604,34.9780884,57.0169678,50,57.0169678s24.163147,9.4396362,25.2579956,25.9698486  C68.2526855,88.3635254,59.4929199,91.5625,50,91.5625z M36.7754517,37.8554077  c0-7.2923584,5.9326782-13.2250366,13.2245483-13.2250366c7.2919312,0,13.2245483,5.9326782,13.2245483,13.2250366  c0,7.2913818-5.9326172,13.2240601-13.2245483,13.2240601C42.7081299,51.0794678,36.7754517,45.1467896,36.7754517,37.8554077z   M80.6599121,78.0317993c-2.0388794-12.4735107-8.8209839-21.2915649-18.975647-24.9990845  c4.5449219-3.506958,7.4777832-9.0059814,7.4777832-15.1773071c0-10.5665283-8.5960083-19.1625366-19.1620483-19.1625366  s-19.1620483,8.5960083-19.1620483,19.1625366c0,6.1713257,2.9328613,11.6703491,7.4777832,15.1773071  c-10.1546021,3.7075195-16.9367676,12.5255737-18.975647,24.9990845C12.5722046,70.6356812,8.4375,60.7918091,8.4375,50  C8.4375,27.0820923,27.0825806,8.4375,50,8.4375c22.9174805,0,41.5625,18.6445923,41.5625,41.5625  C91.5625,60.7918091,87.4277954,70.6356812,80.6599121,78.0317993z"/>
</svg>